<svg xmlns="http://www.w3.org/2000/svg" version="1.1" xmlns:xlink="http://www.w3.org/1999/xlink" xmlns:svgjs="http://svgjs.dev/svgjs" width="2000" height="1247" viewBox="0 0 2000 1247"><g transform="matrix(1,0,0,1,-1.2121212121212466,10.257047597303426)"><svg viewBox="0 0 396 247" data-background-color="#ffffff" preserveAspectRatio="xMidYMid meet" height="1247" width="2000" xmlns="http://www.w3.org/2000/svg" xmlns:xlink="http://www.w3.org/1999/xlink"><g id="tight-bounds" transform="matrix(1,0,0,1,0.2400000000000091,-0.09999999999999432)"><svg viewBox="0 0 395.52 247.2" height="247.2" width="395.52"><g><svg></svg></g><g><svg viewBox="0 0 395.52 247.2" height="247.2" width="395.52"><g transform="matrix(1,0,0,1,39.55199999999999,106.75543909272848)"><svg viewBox="0 0 316.416 33.68912181454303" height="33.68912181454303" width="316.416"><g><svg viewBox="0 0 316.416 33.68912181454303" height="33.68912181454303" width="316.416"><g><svg viewBox="0 0 316.416 33.68912181454303" height="33.68912181454303" width="316.416"><g id="textblocktransform"><svg viewBox="0 0 316.416 33.68912181454303" height="33.68912181454303" width="316.416" id="textblock"><g><svg viewBox="0 0 316.416 33.68912181454303" height="33.68912181454303" width="316.416"><g transform="matrix(1,0,0,1,0,0)"><svg width="316.416" viewBox="1.5499999523162842 -33.95000076293945 374.7200012207031 39.900001525878906" height="33.68912181454303" data-palette-color="#8bc53f"><path d="M11.65-14.25L11.65-14.25 11.1-12.55 21.9-12.55 21.35-14.25Q19.45-20.15 18.25-24.03 17.05-27.9 16.8-28.85L16.8-28.85 16.55-29.8Q16-27.45 11.65-14.25ZM9.7-8.25L7 0 1.55 0 13.2-33.7 19.95-33.7 31.45 0 25.95 0 23.3-8.25 9.7-8.25ZM42.15-33.7L42.15 0 37.05 0 37.05-33.7 42.15-33.7ZM72.75 1.75L72.75 5.95 47.5 5.95 47.5 1.75 72.75 1.75ZM97.64-9.2L97.64-9.2Q97.64-4.75 94.49-2.2 91.34 0.35 86.34 0.35L86.34 0.35Q80.79 0.35 77.14-1.8L77.14-1.8 77.14-7.15Q81.09-4.2 86.29-4.2L86.29-4.2Q89.04-4.2 90.64-5.48 92.24-6.75 92.24-9L92.24-9Q92.24-10.35 91.29-11.48 90.34-12.6 89.24-13.18 88.14-13.75 85.94-14.75L85.94-14.75Q84.64-15.35 84.12-15.6 83.59-15.85 82.39-16.5 81.19-17.15 80.62-17.6 80.04-18.05 79.19-18.85 78.34-19.65 77.97-20.45 77.59-21.25 77.27-22.33 76.94-23.4 76.94-24.65L76.94-24.65Q76.94-28.95 80.07-31.45 83.19-33.95 88.14-33.95L88.14-33.95Q92.69-33.95 95.89-32.35L95.89-32.35 95.89-27.25Q92.54-29.35 88.29-29.35L88.29-29.35Q85.54-29.35 83.97-28.13 82.39-26.9 82.39-24.9 82.39-22.9 83.94-21.7 85.49-20.5 88.69-19.1L88.69-19.1Q90.79-18.2 91.97-17.55 93.14-16.9 94.67-15.73 96.19-14.55 96.92-12.93 97.64-11.3 97.64-9.2ZM129.14-33.7L129.14-12.9Q129.14-6.35 125.74-2.95 122.34 0.45 116.34 0.45L116.34 0.45Q110.44 0.45 107.04-2.88 103.64-6.2 103.64-12.5L103.64-12.5 103.64-33.7 108.79-33.7 108.79-12.55Q108.79-8.25 110.87-6.28 112.94-4.3 116.34-4.3L116.34-4.3Q123.99-4.3 123.99-12.8L123.99-12.8 123.99-33.7 129.14-33.7ZM141.99-13.2L140.99 0 135.89 0 138.49-33.7 144.59-33.7 149.09-21.4Q150.29-18.25 151.49-14.73 152.69-11.2 153.29-9.25L153.29-9.25 153.94-7.3Q156.24-14.1 158.99-21.4L158.99-21.4 163.69-33.7 169.79-33.7 172.89 0 167.79 0 166.59-13.2 165.54-26.7Q163.29-20.35 160.64-13.2L160.64-13.2 155.94-0.65 151.89-0.65 147.34-13.2 142.79-26.5Q142.79-24.3 141.99-13.2L141.99-13.2ZM185.39-13.2L184.39 0 179.29 0 181.89-33.7 187.99-33.7 192.49-21.4Q193.69-18.25 194.89-14.73 196.09-11.2 196.69-9.25L196.69-9.25 197.34-7.3Q199.64-14.1 202.39-21.4L202.39-21.4 207.09-33.7 213.19-33.7 216.29 0 211.19 0 209.99-13.2 208.94-26.7Q206.69-20.35 204.04-13.2L204.04-13.2 199.34-0.65 195.29-0.65 190.74-13.2 186.19-26.5Q186.19-24.3 185.39-13.2L185.39-13.2ZM231.13-14.25L231.13-14.25 230.58-12.55 241.38-12.55 240.83-14.25Q238.93-20.15 237.73-24.03 236.53-27.9 236.28-28.85L236.28-28.85 236.03-29.8Q235.48-27.45 231.13-14.25ZM229.18-8.25L226.48 0 221.03 0 232.68-33.7 239.43-33.7 250.93 0 245.43 0 242.78-8.25 229.18-8.25ZM265.68-29.4L265.68-29.4 261.28-29.4 261.28-17.1 265.93-17.1Q269.13-17.1 270.78-18.78 272.43-20.45 272.43-23.25L272.43-23.25Q272.43-29.4 265.68-29.4ZM261.28-12.8L261.28 0 256.13 0 256.13-33.7 265.53-33.7Q271.33-33.7 274.48-30.88 277.63-28.05 277.63-23.2L277.63-23.2Q277.58-19.65 275.83-17.18 274.08-14.7 270.98-13.6L270.98-13.6 279.78 0 273.63 0 265.73-12.8 261.28-12.8ZM290.03-33.7L290.03 0 284.93 0 284.93-33.7 290.03-33.7ZM320.58-4.25L320.58 0 296.78 0 296.78-4.05 313.78-29.45 297.03-29.45 297.03-33.7 319.88-33.7 319.88-29.75 302.83-4.25 320.58-4.25ZM346.37-4.3L346.37 0 326.92 0 326.92-33.7 346.12-33.7 346.12-29.4 332.07-29.4 332.07-19 344.52-19 344.52-14.7 332.07-14.7 332.07-4.3 346.37-4.3ZM362.17-29.4L362.17-29.4 357.77-29.4 357.77-17.1 362.42-17.1Q365.62-17.1 367.27-18.78 368.92-20.45 368.92-23.25L368.92-23.25Q368.92-29.4 362.17-29.4ZM357.77-12.8L357.77 0 352.62 0 352.62-33.7 362.02-33.7Q367.82-33.7 370.97-30.88 374.12-28.05 374.12-23.2L374.12-23.2Q374.07-19.65 372.32-17.18 370.57-14.7 367.47-13.6L367.47-13.6 376.27 0 370.12 0 362.22-12.8 357.77-12.8Z" opacity="1" transform="matrix(1,0,0,1,0,0)" fill="#8bc53f" class="undefined-text-0" data-fill-palette-color="primary" id="text-0"></path></svg></g></svg></g></svg></g></svg></g></svg></g></svg></g><g mask="url(&quot;#d2219937-f934-4705-8dc7-05fdb3d1fe5d&quot;)"><g transform="matrix(2.3576923076923078, 0, 0, 2.3576923076923078, 46.87137979947602, 0.9999999999999858)"><svg xmlns="http://www.w3.org/2000/svg" data-name="Layer 1" viewBox="0.0031416250858455896 12 127.99687194824219 104" x="0" y="0" width="127.99687194824219" height="104" class="icon-none" data-fill-palette-color="accent" id="none"><path d="M101 37a27 27 0 0 0 0 54 26.572 26.572 0 0 0 5-0.47 26.996 26.996 0 0 0 0-53.06A26.572 26.572 0 0 0 101 37ZM93.414 66.586a2 2 0 1 1-2.828 2.828l-4-4a1.999 1.999 0 0 1 0-2.828l4-4a2 2 0 0 1 2.828 2.828L90.829 64Zm11.483-7.954l-4 12a2 2 0 1 1-3.794-1.264l4-12a2 2 0 1 1 3.794 1.264Zm3.689 2.782a2 2 0 0 1 2.828-2.828l4 4a1.999 1.999 0 0 1 0 2.828l-4 4a2 2 0 0 1-2.828-2.828L111.171 64Z" fill="#5d9943" data-fill-palette-color="accent"></path><path d="M106 18a6.005 6.005 0 0 0-6-6H28a6.005 6.005 0 0 0-6 6v7h84ZM84 21H80a2 2 0 0 1 0-4h4a2 2 0 0 1 0 4Zm12 0H92a2 2 0 0 1 0-4h4a2 2 0 0 1 0 4Z" fill="#5d9943" data-fill-palette-color="accent"></path><path d="M126.55 108.91l-12.12-10a5.257 5.257 0 0 0-0.49-0.33A3.679 3.679 0 0 0 114 98V92.13a30.563 30.563 0 0 1-4 1.53V98H18V48h4V92a2.006 2.006 0 0 0 2 2c0.87 0 49.11 0.02 69.28 0.03A30.819 30.819 0 0 1 81.42 88H32a2 2 0 0 1 0-4H77.34a31.078 31.078 0 0 1-6.29-12H32a2 2 0 0 1 0-4H70.27A30.922 30.922 0 0 1 101 33a30.582 30.582 0 0 1 5 0.41V29H22V44H18a3.999 3.999 0 0 0-4 4V98a3.679 3.679 0 0 0 0.06 0.58 5.257 5.257 0 0 0-0.49 0.33l-12.12 10A4.007 4.007 0 0 0 4 116H124a4.007 4.007 0 0 0 2.55-7.09ZM32 36H44a2 2 0 0 1 0 4H32a2 2 0 0 1 0-4Zm0 8H68a2 2 0 0 1 0 4H32a2 2 0 0 1 0-4Zm0 8H48a2 2 0 0 1 0 4H32a2 2 0 0 1 0-4Zm0 8H64a2 2 0 0 1 0 4H32a2 2 0 0 1 0-4Zm0 16H58a2 2 0 0 1 0 4H32a2 2 0 0 1 0-4ZM4 112l12.12-10h95.76L124 112Z" fill="#5d9943" data-fill-palette-color="accent"></path></svg></g></g></svg></g><defs><mask id="d2219937-f934-4705-8dc7-05fdb3d1fe5d"><rect width="640" height="400" fill="white"></rect><rect width="348.05760000000004" height="49.59550805752315" fill="black" y="98.80224597123842" x="23.731199999999973" id="transform-me"></rect></mask></defs></svg><rect width="395.52" height="247.2" fill="none" stroke="none" visibility="hidden"></rect></g></svg></g></svg>